HIERARCHY
ROOT mixamorig:Hips
{
	OFFSET 0.000000 201.639420 0.000000
	CHANNELS 6 Xposition Yposition Zposition Xrotation Yrotation Zrotation
	JOINT mixamorig:Spine
	{
		OFFSET 0.006200 19.524994 -2.481800
		CHANNELS 3 Xrotation Yrotation Zrotation
		JOINT mixamorig:Spine1
		{
			OFFSET -0.000900 22.835007 -2.825400
			CHANNELS 3 Xrotation Yrotation Zrotation
			JOINT mixamorig:Spine2
			{
				OFFSET -0.020600 26.552490 -3.193300
				CHANNELS 3 Xrotation Yrotation Zrotation
				JOINT mixamorig:Neck
				{
					OFFSET -0.060000 30.701813 1.352200
					CHANNELS 3 Xrotation Yrotation Zrotation
					JOINT mixamorig:Head
					{
						OFFSET -0.087200 22.547607 3.670900
						CHANNELS 3 Xrotation Yrotation Zrotation
						JOINT mixamorig:HeadTop_End
						{
							OFFSET -0.830600 40.355194 7.893500
							CHANNELS 3 Xrotation Yrotation Zrotation
							End Site
							{
								OFFSET 0.000000 30.592346 0.000000
							}
						}
						JOINT mixamorig:RightEye
						{
							OFFSET -6.302100 18.118591 16.197100
							CHANNELS 3 Xrotation Yrotation Zrotation
							End Site
							{
								OFFSET 0.000000 30.592346 0.000000
							}
						}
						JOINT mixamorig:LeftEye
						{
							OFFSET 6.741500 18.382690 16.401899
							CHANNELS 3 Xrotation Yrotation Zrotation
							End Site
							{
								OFFSET 0.000000 30.592346 0.000000
							}
						}
					}
				}
				JOINT mixamorig:LeftShoulder
				{
					OFFSET 11.924900 18.230499 1.425400
					CHANNELS 3 Xrotation Yrotation Zrotation
					JOINT mixamorig:LeftArm
					{
						OFFSET 25.435989 -0.697632 -5.229300
						CHANNELS 3 Xrotation Yrotation Zrotation
						JOINT mixamorig:LeftForeArm
						{
							OFFSET 54.684776 0.000000 0.000000
							CHANNELS 3 Xrotation Yrotation Zrotation
							JOINT mixamorig:LeftHand
							{
								OFFSET 55.098175 0.000000 0.000000
								CHANNELS 3 Xrotation Yrotation Zrotation
								JOINT mixamorig:LeftHandMiddle1
								{
									OFFSET 23.369751 0.000000 0.000000
									CHANNELS 3 Xrotation Yrotation Zrotation
									JOINT mixamorig:LeftHandMiddle2
									{
										OFFSET 6.378677 0.000000 0.000000
										CHANNELS 3 Xrotation Yrotation Zrotation
										JOINT mixamorig:LeftHandMiddle3
										{
											OFFSET 6.148331 0.000000 0.000000
											CHANNELS 3 Xrotation Yrotation Zrotation
											JOINT mixamorig:LeftHandMiddle4
											{
												OFFSET 6.582504 0.000000 0.000000
												CHANNELS 3 Xrotation Yrotation Zrotation
												End Site
												{
													OFFSET -1.168900 6.395691 1.028606
												}
											}
										}
									}
								}
								JOINT mixamorig:LeftHandThumb1
								{
									OFFSET 7.235672 -3.848206 5.434273
									CHANNELS 3 Xrotation Yrotation Zrotation
									JOINT mixamorig:LeftHandThumb2
									{
										OFFSET 6.568451 -3.792297 3.792300
										CHANNELS 3 Xrotation Yrotation Zrotation
										JOINT mixamorig:LeftHandThumb3
										{
											OFFSET 6.063080 -3.500519 3.500518
											CHANNELS 3 Xrotation Yrotation Zrotation
											JOINT mixamorig:LeftHandThumb4
											{
												OFFSET 4.793182 -2.767334 2.767349
												CHANNELS 3 Xrotation Yrotation Zrotation
												End Site
												{
													OFFSET 0.101639 6.054260 1.275483
												}
											}
										}
									}
								}
								JOINT mixamorig:LeftHandIndex1
								{
									OFFSET 23.101074 -0.309540 4.992809
									CHANNELS 3 Xrotation Yrotation Zrotation
									JOINT mixamorig:LeftHandIndex2
									{
										OFFSET 6.226883 0.000000 0.000000
										CHANNELS 3 Xrotation Yrotation Zrotation
										JOINT mixamorig:LeftHandIndex3
										{
											OFFSET 6.094330 0.000000 0.000000
											CHANNELS 3 Xrotation Yrotation Zrotation
											JOINT mixamorig:LeftHandIndex4
											{
												OFFSET 5.482605 0.000000 0.000000
												CHANNELS 3 Xrotation Yrotation Zrotation
												End Site
												{
													OFFSET -1.427902 5.233032 0.797164
												}
											}
										}
									}
								}
								JOINT mixamorig:LeftHandRing1
								{
									OFFSET 22.299240 0.021149 -3.964172
									CHANNELS 3 Xrotation Yrotation Zrotation
									JOINT mixamorig:LeftHandRing2
									{
										OFFSET 6.321869 0.000000 0.000000
										CHANNELS 3 Xrotation Yrotation Zrotation
										JOINT mixamorig:LeftHandRing3
										{
											OFFSET 5.899796 0.000000 0.000000
											CHANNELS 3 Xrotation Yrotation Zrotation
											JOINT mixamorig:LeftHandRing4
											{
												OFFSET 6.517899 0.000000 0.000000
												CHANNELS 3 Xrotation Yrotation Zrotation
												End Site
												{
													OFFSET -1.637299 6.232208 0.980890
												}
											}
										}
									}
								}
								JOINT mixamorig:LeftHandPinky1
								{
									OFFSET 20.463791 -0.302338 -8.562233
									CHANNELS 3 Xrotation Yrotation Zrotation
									JOINT mixamorig:LeftHandPinky2
									{
										OFFSET 6.908646 0.000000 0.000000
										CHANNELS 3 Xrotation Yrotation Zrotation
										JOINT mixamorig:LeftHandPinky3
										{
											OFFSET 4.622849 0.000000 0.000000
											CHANNELS 3 Xrotation Yrotation Zrotation
											JOINT mixamorig:LeftHandPinky4
											{
												OFFSET 5.216080 0.000000 0.000000
												CHANNELS 3 Xrotation Yrotation Zrotation
												End Site
												{
													OFFSET -0.606308 5.116241 0.814926
												}
											}
										}
									}
								}
							}
						}
					}
				}
				JOINT mixamorig:RightShoulder
				{
					OFFSET -12.001300 18.284088 1.348900
					CHANNELS 3 Xrotation Yrotation Zrotation
					JOINT mixamorig:RightArm
					{
						OFFSET -25.308500 -0.751312 -5.164599
						CHANNELS 3 Xrotation Yrotation Zrotation
						JOINT mixamorig:RightForeArm
						{
							OFFSET -54.684429 0.000000 0.000000
							CHANNELS 3 Xrotation Yrotation Zrotation
							JOINT mixamorig:RightHand
							{
								OFFSET -55.150291 0.000000 0.000000
								CHANNELS 3 Xrotation Yrotation Zrotation
								JOINT mixamorig:RightHandMiddle1
								{
									OFFSET -23.317566 0.000000 0.000000
									CHANNELS 3 Xrotation Yrotation Zrotation
									JOINT mixamorig:RightHandMiddle2
									{
										OFFSET -6.378403 0.000000 0.000000
										CHANNELS 3 Xrotation Yrotation Zrotation
										JOINT mixamorig:RightHandMiddle3
										{
											OFFSET -6.148193 0.000000 0.000000
											CHANNELS 3 Xrotation Yrotation Zrotation
											JOINT mixamorig:RightHandMiddle4
											{
												OFFSET -6.583389 0.000000 0.000000
												CHANNELS 3 Xrotation Yrotation Zrotation
												End Site
												{
													OFFSET 1.171692 6.395905 1.029786
												}
											}
										}
									}
								}
								JOINT mixamorig:RightHandThumb1
								{
									OFFSET -7.190521 -3.860474 5.435846
									CHANNELS 3 Xrotation Yrotation Zrotation
									JOINT mixamorig:RightHandThumb2
									{
										OFFSET -6.567429 -3.791718 3.791708
										CHANNELS 3 Xrotation Yrotation Zrotation
										JOINT mixamorig:RightHandThumb3
										{
											OFFSET -6.062469 -3.500153 3.500166
											CHANNELS 3 Xrotation Yrotation Zrotation
											JOINT mixamorig:RightHandThumb4
											{
												OFFSET -4.792618 -2.767029 2.767022
												CHANNELS 3 Xrotation Yrotation Zrotation
												End Site
												{
													OFFSET -0.100327 6.053253 1.276754
												}
											}
										}
									}
								}
								JOINT mixamorig:RightHandIndex1
								{
									OFFSET -23.048981 -0.310791 4.992554
									CHANNELS 3 Xrotation Yrotation Zrotation
									JOINT mixamorig:RightHandIndex2
									{
										OFFSET -6.227539 0.000000 0.000000
										CHANNELS 3 Xrotation Yrotation Zrotation
										JOINT mixamorig:RightHandIndex3
										{
											OFFSET -6.095047 0.000000 0.000000
											CHANNELS 3 Xrotation Yrotation Zrotation
											JOINT mixamorig:RightHandIndex4
											{
												OFFSET -5.484772 0.000000 0.000000
												CHANNELS 3 Xrotation Yrotation Zrotation
												End Site
												{
													OFFSET 1.420593 5.237305 0.797056
												}
											}
										}
									}
								}
								JOINT mixamorig:RightHandRing1
								{
									OFFSET -22.246323 0.020569 -3.963762
									CHANNELS 3 Xrotation Yrotation Zrotation
									JOINT mixamorig:RightHandRing2
									{
										OFFSET -6.322128 0.000000 0.000000
										CHANNELS 3 Xrotation Yrotation Zrotation
										JOINT mixamorig:RightHandRing3
										{
											OFFSET -5.900024 0.000000 0.000000
											CHANNELS 3 Xrotation Yrotation Zrotation
											JOINT mixamorig:RightHandRing4
											{
												OFFSET -6.518356 0.000000 0.000000
												CHANNELS 3 Xrotation Yrotation Zrotation
												End Site
												{
													OFFSET 1.636398 6.232697 0.982186
												}
											}
										}
									}
								}
								JOINT mixamorig:RightHandPinky1
								{
									OFFSET -20.411011 -0.303314 -8.561701
									CHANNELS 3 Xrotation Yrotation Zrotation
									JOINT mixamorig:RightHandPinky2
									{
										OFFSET -6.907349 0.000000 0.000000
										CHANNELS 3 Xrotation Yrotation Zrotation
										JOINT mixamorig:RightHandPinky3
										{
											OFFSET -4.623840 0.000000 0.000000
											CHANNELS 3 Xrotation Yrotation Zrotation
											JOINT mixamorig:RightHandPinky4
											{
												OFFSET -5.218353 0.000000 0.000000
												CHANNELS 3 Xrotation Yrotation Zrotation
												End Site
												{
													OFFSET 0.602097 5.118835 0.816273
												}
											}
										}
									}
								}
							}
						}
					}
				}
			}
		}
	}
	JOINT mixamorig:LeftUpLeg
	{
		OFFSET 18.168400 -13.561905 -0.039000
		CHANNELS 3 Xrotation Yrotation Zrotation
		JOINT mixamorig:LeftLeg
		{
			OFFSET 0.577358 -80.825211 -3.695000
			CHANNELS 3 Xrotation Yrotation Zrotation
			JOINT mixamorig:LeftFoot
			{
				OFFSET -0.577356 -83.370262 -6.520700
				CHANNELS 3 Xrotation Yrotation Zrotation
				JOINT mixamorig:LeftToeBase
				{
					OFFSET 0.750401 -20.798306 25.135401
					CHANNELS 3 Xrotation Yrotation Zrotation
					JOINT mixamorig:LeftToe_End
					{
						OFFSET -0.000500 0.001200 19.917799
						CHANNELS 3 Xrotation Yrotation Zrotation
						End Site
						{
							OFFSET 0.000000 19.917805 0.000000
						}
					}
				}
			}
		}
	}
	JOINT mixamorig:RightUpLeg
	{
		OFFSET -18.162500 -13.585098 -0.041000
		CHANNELS 3 Xrotation Yrotation Zrotation
		JOINT mixamorig:RightLeg
		{
			OFFSET -0.595024 -80.945297 -3.631900
			CHANNELS 3 Xrotation Yrotation Zrotation
			JOINT mixamorig:RightFoot
			{
				OFFSET 0.595024 -83.218193 -6.561200
				CHANNELS 3 Xrotation Yrotation Zrotation
				JOINT mixamorig:RightToeBase
				{
					OFFSET -0.753601 -20.807106 25.115000
					CHANNELS 3 Xrotation Yrotation Zrotation
					JOINT mixamorig:RightToe_End
					{
						OFFSET 0.000299 0.001700 19.918200
						CHANNELS 3 Xrotation Yrotation Zrotation
						End Site
						{
							OFFSET 0.000000 19.918203 0.000000
						}
					}
				}
			}
		}
	}
}
MOTION
Frames: 5
Frame Time: 0.033333
0.563755 194.385071 -1.443954 -14.912081 -30.584183 -6.276950 7.783631 -0.643781 0.034783 16.298542 -0.280824 -0.687774 16.298600 -0.349996 -0.659946 0.391626 7.442741 0.878656 -6.930345 20.763384 12.458595 -0.000001 0.000000 -0.000001 -0.000001 0.000000 -0.000001 -0.000001 0.000000 -0.000001 -37.584830 -4.517018 1.777080 -41.987461 -8.058960 -61.204861 0.000013 -62.120502 0.000001 -120.990203 2.064983 30.887973 0.336051 5.450853 -52.406266 3.383183 5.306796 -65.014651 0.282019 1.797458 -17.832391 0.000003 -0.000004 0.000005 4.709206 9.560385 3.111987 19.436990 -1.582129 7.610551 -4.644239 -9.615568 1.521752 0.000003 -0.000002 -0.000001 -0.201284 3.955808 -36.841911 2.955722 5.086636 -60.297955 0.520093 2.415072 -24.303338 -0.000005 -0.000001 -0.000001 -0.045188 5.754249 -61.080196 4.043359 5.565746 -71.974573 0.577394 2.538015 -25.629061 -0.000001 0.000000 -0.000002 -6.606509 4.518042 -72.358724 3.306273 5.270415 -64.180323 0.177047 1.430814 -14.107226 -0.000002 -0.000002 0.000002 -41.076300 -8.435672 -9.709150 -49.479362 58.156185 103.433339 0.000178 96.637649 -0.000152 -52.066187 -17.476171 -29.588776 3.475630 -7.237669 51.602264 6.293551 -4.360831 110.591773 0.248719 -1.503067 18.790277 0.000001 0.000000 -0.000000 8.413455 -4.934109 11.034980 21.556654 -18.269395 -18.369396 -0.937457 -49.849548 -32.793121 0.000000 0.000003 -0.000002 -0.930350 1.690814 12.532082 0.754917 -2.543910 33.051569 0.621842 -2.326863 29.920914 -0.000000 0.000000 0.000000 -3.375948 -2.585614 57.031028 5.431279 -4.592526 99.578380 1.681943 -3.584510 50.262829 -0.000001 -0.000000 -0.000002 -3.959625 -3.311564 64.524271 4.064299 -4.619357 82.678231 2.320368 -4.029596 59.855994 0.000001 0.000001 -0.000002 -22.332664 43.074735 28.154793 21.544954 0.698981 -0.655450 4.497099 1.203375 -2.451675 -0.000060 -0.000007 0.000001 -0.000000 0.000000 0.000000 2.052736 4.899418 -4.820457 30.749559 -10.143616 -1.006893 -17.639577 -8.537923 8.688427 -0.972046 0.000002 -0.000003 -0.000000 0.000000 0.000000 
0.878246 194.385361 -1.499371 -14.896217 -30.584938 -6.267964 7.791225 -0.676752 0.044542 16.298547 -0.289530 -0.687772 16.298597 -0.357924 -0.659946 0.391627 7.442737 0.878663 -6.928240 20.735110 12.463984 0.000001 -0.000000 -0.000000 0.000001 -0.000000 -0.000000 0.000001 -0.000000 -0.000000 -37.584714 -4.471572 1.805374 -42.033708 -8.146332 -61.228042 -0.000007 -61.958326 -0.000008 -121.039585 2.099364 30.808395 0.350674 5.461233 -52.390980 3.383171 5.306785 -65.014638 0.282021 1.797458 -17.832393 -0.000002 -0.000001 0.000003 4.709207 9.560381 3.111986 19.419317 -1.621905 7.607565 -4.639541 -9.602737 1.523935 0.000002 0.000002 0.000000 -0.207412 3.949540 -36.869300 2.944228 5.080090 -60.168284 0.514663 2.403036 -24.174092 -0.000002 -0.000000 -0.000002 -0.053757 5.750067 -61.087812 4.043383 5.565747 -71.974573 0.577383 2.537985 -25.629071 0.000000 0.000002 0.000000 -6.579016 4.523054 -72.340268 3.288137 5.261649 -63.982712 0.172246 1.411594 -13.913845 0.000000 -0.000001 -0.000000 -41.076300 -8.435655 -9.709149 -49.569429 58.132894 103.525771 -0.000848 96.555352 0.000855 -52.055279 -17.470014 -29.567421 3.458999 -7.225270 51.587012 6.293557 -4.360818 110.591800 0.248719 -1.503067 18.790277 0.000002 -0.000000 -0.000001 8.422206 -4.973544 11.028294 21.553304 -18.269924 -18.368858 -0.937453 -49.849535 -32.793125 -0.000002 0.000001 0.000002 -0.929334 1.675340 12.557586 0.749157 -2.535085 32.921993 0.616577 -2.317735 29.791465 -0.000000 -0.000000 -0.000001 -3.367229 -2.592306 57.037988 5.431286 -4.592536 99.578387 1.681940 -3.584510 50.262823 -0.000001 -0.000000 0.000003 -3.987821 -3.295579 64.507319 4.048658 -4.617346 82.484213 2.306722 -4.021635 59.661395 0.000000 0.000001 -0.000004 -22.344680 43.074048 28.155918 21.536556 0.698634 -0.655467 4.505419 1.203597 -2.454566 0.000014 -0.000000 -0.000003 0.000000 -0.000000 0.000000 1.959277 4.939456 -4.900333 30.771993 -10.146085 -1.007103 -17.552263 -8.544209 8.770511 -0.972050 -0.000001 0.000001 -0.000000 -0.000001 -0.000000 
0.867479 194.375854 -1.525024 -14.880098 -30.576640 -6.256014 7.811901 -0.715812 0.059713 16.298544 -0.299994 -0.687773 16.298597 -0.364847 -0.659947 0.391621 7.442750 0.878651 -6.957194 20.712028 12.449590 -0.000001 0.000001 0.000003 -0.000001 0.000001 0.000003 -0.000001 0.000001 0.000003 -37.582774 -4.448157 1.855697 -42.029945 -8.129376 -61.197860 0.000061 -61.905392 0.000055 -121.134443 2.178153 30.760006 0.332650 5.448834 -52.417003 3.383176 5.306774 -65.014631 0.282026 1.797459 -17.832389 -0.000002 0.000001 0.000001 4.709208 9.560380 3.111986 19.434861 -1.585836 7.605769 -4.643574 -9.617431 1.531060 0.000002 0.000000 -0.000001 -0.194494 3.968307 -36.890876 2.969092 5.094228 -60.448854 0.526455 2.429080 -24.453505 0.000000 0.000000 0.000001 -0.060807 5.742788 -61.040567 4.043294 5.565719 -71.973808 0.577344 2.537920 -25.628164 -0.000001 0.000000 -0.000000 -6.590942 4.517154 -72.330447 3.290025 5.262548 -64.003182 0.172727 1.413517 -13.933107 0.000001 0.000000 -0.000002 -41.075450 -8.441928 -9.702638 -49.825923 58.178438 103.767437 0.000291 96.493873 -0.000319 -52.033648 -17.463638 -29.676643 3.480489 -7.241005 51.613035 6.293542 -4.360819 110.591800 0.248718 -1.503069 18.790277 0.000000 -0.000000 -0.000000 8.411320 -4.956793 11.026763 21.575161 -18.250414 -18.375184 -0.937444 -49.849548 -32.793104 0.000001 -0.000001 0.000000 -0.936059 1.696055 12.582440 0.761591 -2.554174 33.202178 0.627974 -2.337452 30.071376 0.000001 0.000000 -0.000003 -3.363383 -2.588322 56.990876 5.431208 -4.592532 99.577512 1.681875 -3.584435 50.261935 0.000000 -0.000000 0.000002 -3.976571 -3.299484 64.496698 4.050205 -4.617523 82.503269 2.308069 -4.022437 59.680779 -0.000001 -0.000002 -0.000001 -22.382597 43.071689 28.168545 21.557522 0.692227 -0.655683 4.502678 1.203618 -2.448759 -0.000072 -0.000002 -0.000005 -0.000000 -0.000002 -0.000000 1.923414 4.940574 -4.891127 30.807992 -10.145891 -1.007071 -17.565553 -8.556436 8.764117 -0.972049 -0.000000 -0.000001 0.000000 -0.000000 -0.000000 
0.855236 194.372269 -1.569355 -14.872471 -30.569990 -6.233730 7.831665 -0.745618 0.064567 16.298547 -0.307873 -0.687771 16.298604 -0.371211 -0.659945 0.391609 7.442746 0.878651 -6.959135 20.655192 12.445207 -0.000001 -0.000001 0.000001 -0.000001 -0.000001 0.000001 -0.000001 -0.000001 0.000001 -37.582942 -4.461383 1.844737 -42.075328 -8.163947 -61.183872 0.000043 -61.737151 0.000039 -121.181148 2.240759 30.667966 0.340198 5.455259 -52.428320 3.383159 5.306801 -65.014658 0.282024 1.797459 -17.832389 0.000002 0.000000 0.000003 4.709210 9.560381 3.111987 19.485247 -1.483398 7.589190 -4.656543 -9.662553 1.548987 0.000002 0.000001 0.000000 -0.195517 3.966123 -36.878869 2.958829 5.088400 -60.333021 0.521586 2.418360 -24.338356 -0.000001 0.000000 -0.000001 -0.030286 5.761690 -61.069425 4.047208 5.566996 -72.014311 0.579159 2.541697 -25.669091 0.000001 -0.000002 -0.000002 -6.586829 4.515927 -72.318159 3.288696 5.261917 -63.988873 0.172386 1.412128 -13.919312 0.000001 0.000001 0.000003 -41.071167 -8.439991 -9.688900 -49.917341 58.165146 103.854481 -0.000318 96.395894 0.000359 -51.997428 -17.479654 -29.667678 3.474611 -7.235839 51.624482 6.293557 -4.360810 110.591787 0.248717 -1.503067 18.790274 0.000001 0.000000 0.000001 8.354564 -4.869380 11.018884 21.592047 -18.240959 -18.379149 -0.937440 -49.849559 -32.793101 -0.000001 -0.000002 -0.000002 -0.934930 1.695953 12.570277 0.756473 -2.546314 33.086768 0.623270 -2.329338 29.956021 -0.000000 0.000001 0.000000 -3.390961 -2.574469 57.021404 5.434507 -4.591969 99.618603 1.684445 -3.586573 50.303018 -0.000001 -0.000000 0.000002 -3.981295 -3.295437 64.484540 4.049100 -4.617376 82.489520 2.307084 -4.021899 59.666846 0.000000 -0.000001 0.000000 -22.368347 43.074065 28.138221 21.515419 0.686982 -0.655364 4.542402 1.203499 -2.446510 -0.000023 -0.000009 0.000000 -0.000000 0.000000 -0.000000 1.890228 4.939403 -4.893385 30.845510 -10.145953 -1.007088 -17.575369 -8.570217 8.754545 -0.972048 -0.000004 -0.000001 0.000000 0.000001 0.000000 
0.832577 194.365540 -1.599453 -14.828546 -30.540788 -6.207202 7.826826 -0.774096 0.096382 16.298542 -0.315618 -0.684506 16.298597 -0.381640 -0.656675 0.391628 7.442739 0.878657 -6.913348 20.575668 12.469149 -0.000000 0.000000 -0.000003 -0.000000 0.000000 -0.000003 -0.000000 0.000000 -0.000003 -37.573274 -4.486745 1.877247 -42.113153 -8.186380 -61.192887 0.000042 -61.574613 0.000046 -121.255078 2.279447 30.551665 0.346405 5.461327 -52.451826 3.383185 5.306769 -65.014631 0.282025 1.797458 -17.832391 -0.000000 0.000002 -0.000001 4.709210 9.560375 3.111988 19.455043 -1.578089 7.595753 -4.648024 -9.633769 1.539256 0.000003 0.000003 -0.000000 -0.201216 3.956874 -36.855786 2.941458 5.078488 -60.136858 0.513374 2.400150 -24.143165 -0.000002 -0.000000 0.000001 -0.043456 5.755113 -61.079219 4.042806 5.565564 -71.968815 0.577148 2.537512 -25.623627 0.000001 0.000004 -0.000001 -6.602034 4.507393 -72.301056 3.306597 5.270569 -64.183820 0.177138 1.431213 -14.111342 0.000001 0.000000 -0.000000 -41.071003 -8.462125 -9.675738 -50.014825 58.158965 103.936027 0.000108 96.308317 -0.000118 -51.961245 -17.509217 -29.651538 3.471811 -7.232499 51.648238 6.293563 -4.360817 110.591800 0.248719 -1.503067 18.790276 0.000000 -0.000000 -0.000000 8.393835 -4.929802 11.024310 21.565810 -18.267558 -18.361604 -0.937452 -49.849541 -32.793125 0.000002 -0.000002 0.000001 -0.931167 1.688869 12.545825 0.747800 -2.532967 32.891087 0.615337 -2.315548 29.760466 -0.000000 0.000000 -0.000001 -3.377674 -2.584365 57.030174 5.430841 -4.592589 99.572895 1.681586 -3.584218 50.257341 -0.000001 -0.000000 -0.000001 -3.967157 -3.299593 64.466358 4.064634 -4.619404 82.682595 2.320676 -4.029746 59.860140 -0.000001 -0.000000 0.000001 -22.425114 43.060747 28.146743 21.514976 0.660169 -0.655279 4.559556 1.203329 -2.441515 -0.000101 -0.000002 -0.000002 0.000000 0.000000 -0.000000 1.839225 4.936076 -4.872203 30.874562 -10.145654 -1.007050 -17.587044 -8.605988 8.740494 -0.972051 0.000005 0.000000 0.000000 -0.000004 -0.000000 
